<?xml version="1.0" encoding="utf-8" ?><svg xmlns="http://www.w3.org/2000/svg" xmlns:xlink="http://www.w3.org/1999/xlink" width="400" height="298" viewBox="0 0 400 298"><path fill="#8D645B" transform="matrix(1.50376 0 0 1.50505 0 0.000244141)" d="M74.1401 20.102C81.9214 19.7888 90.5639 20.1604 98.4153 20.0411C117.614 19.7494 129.294 19.3392 144.853 32.2125C160.525 45.1797 170.835 68.589 172.588 88.6248C177.063 88.8402 184.671 88.2496 188.439 89.3449C189.304 90.5125 189.672 91.2594 190.337 92.5569C192.115 92.7838 193.906 93.1087 195.676 93.4082C210.571 95.9291 225.512 98.2027 240.379 100.878C241.323 101.048 242.445 101.417 243.278 101.89C244.993 103.846 244.608 109.65 244.541 112.359C246.38 112.283 257.839 111.713 258.669 113.079C261.365 117.515 259.541 129.208 260.084 134.7C260.295 136.843 259.863 139.706 258.833 141.244C258.206 141.76 256.575 141.965 255.76 141.983C242.626 142.275 229.457 141.824 216.322 142.23C215.74 153.965 213.422 166.7 212.073 178.439C211.964 179.389 211.223 181.112 210.604 181.835C207.699 183.502 198.777 182.788 194.839 182.737L163.208 182.653C157.498 182.669 151.671 182.943 146.002 182.348C143.21 182.054 143.328 178.453 142.953 176.292C142.733 175.023 142.582 173.714 142.379 172.438C138.384 176.08 129.042 180.236 123.808 181.387C116.769 182.936 107.987 182.63 100.714 182.633L74.8767 182.734L40.7992 182.762C34.9222 182.767 29.0566 182.964 23.1732 182.746C19.4781 182.609 19.068 180.451 18.9521 177.251C18.7307 171.144 18.8215 165.009 18.8463 158.895L18.8328 131.213L18.8719 97.3407C18.8984 87.3325 18.3305 78.1758 20.4511 68.2952C26.0302 42.3 47.0571 21.8601 74.1401 20.102ZM26.9083 154.76C31.085 154.743 45.2839 153.038 40.3338 161.045C39.1911 162.894 29.0667 162.431 26.7915 162.434C26.9025 165.426 27.0582 172.065 26.7857 174.931L46.8125 174.972L72.5735 174.966C77.2503 174.964 82.5339 175.077 87.1713 174.893C70.39 164.232 59.6496 144.907 55.3898 125.857C49.6099 100.008 52.7915 70.8257 67.16 48.2083C69.9258 43.8547 73.2488 39.5244 76.9312 35.911C78.1056 34.7586 86.1593 28.1667 86.2863 27.7383L86.0239 27.6738C81.371 27.7913 76.8114 27.6235 72.1644 28.1224C44.0456 31.1416 25.2923 58.164 26.9382 85.4392C27.1915 89.6379 26.9185 95.1257 26.9223 99.4335L26.9664 132.375C26.9994 139.481 27.2039 147.725 26.9083 154.76ZM141.186 163.15C140.661 156.4 139.795 148.548 138.694 141.837C137.733 143.067 136.741 144.309 135.778 145.534C125.429 158.689 111.776 163.761 97.3975 152.95C71.0137 130.275 70.0497 81.1428 91.7879 55.0098C102.124 42.5837 117.761 39.8145 130.186 51.0059C141.095 60.8315 145.97 74.717 148.573 88.7593L164.756 88.5458C163.81 83.4297 162.958 78.5873 161.488 73.575C157.117 58.6763 148.752 44.1196 135.773 35.1596C128.134 29.8861 120.221 27.4807 110.968 27.8568C90.3904 29.3652 75.7419 45.282 68.0739 63.4707C54.6054 95.4182 58.6682 140.07 85.6307 164.077C100.324 177.16 121.212 178.677 137.006 166.673C138.437 165.606 140.023 164.522 141.186 163.15ZM141.391 96.3065C133.096 98.6634 134.466 105.371 134.536 112.339C147.751 112.134 162.463 111.99 175.614 112.253C177.733 112.267 179.934 112.251 182.044 112.301C182.029 107.12 181.909 101.448 182.041 96.3056C173.744 96.0847 165.051 96.1789 156.739 96.1746C152.681 96.1725 145.272 95.9597 141.391 96.3065ZM190.067 112.337C204.637 111.565 221.899 112.538 236.784 112.262C236.793 110.97 236.784 109.681 236.873 108.393C233.047 107.361 227.427 106.578 223.376 105.895L201.512 102.24C198.375 101.734 193.055 101.07 190.131 100.28C189.744 104.121 190.064 108.468 190.067 112.337ZM102.496 134.393C114.778 134.604 127.313 134.481 139.613 134.477L199.559 134.479L233.662 134.479C238.501 134.476 247.341 134.71 251.946 134.263C252.525 133.583 252.033 121.96 252.155 120.255C245.425 119.797 236.731 120.009 229.847 120.003L191.072 120.016L135.156 120.023C124.46 120.024 113.282 119.874 102.635 120.146C102.1 120.794 102.537 132.585 102.496 134.393ZM113.872 112.038C117.502 111.322 120.467 108.71 121.636 105.2C122.805 101.69 121.997 97.8223 119.521 95.0729C117.046 92.3235 113.283 91.1166 109.67 91.9126C104.169 93.1245 100.667 98.5385 101.819 104.053C102.97 109.568 108.345 113.128 113.872 112.038ZM97.3352 142.117C103.626 148.303 110.291 154.103 119.577 149.445C123.714 147.181 125.167 145.582 128.438 142.268C120.744 142.058 112.153 141.919 104.432 142.131C102.371 142.155 99.2961 142.268 97.3352 142.117ZM146.735 142.22C147.807 148.437 148.078 154.996 149.064 161.247C149.769 165.719 149.927 170.477 150.768 174.91L204.48 174.944C205.012 173.627 205.494 169.03 205.686 167.411L207.685 150.532C207.888 148.841 208.398 143.724 208.802 142.231C199.792 141.838 189.598 142.037 180.484 142.072C170.816 142.109 160.441 141.856 150.851 142.135L146.735 142.22ZM111.648 51.8526C105.997 52.389 100.661 56.4238 97.2886 60.7741C80.512 82.4129 80.3895 115.993 94.7387 138.555C94.6274 131.136 94.7228 123.623 94.7445 116.196C94.7504 114.153 96.329 113.461 96.6257 112.161C96.6346 112.122 95.1793 109.176 94.9648 108.692C87.8033 85.3123 118.168 73.3552 129.178 95.8233C132.481 91.2359 135.24 89.8988 140.634 88.4889C140.117 86.5426 139.643 84.6122 139.2 82.6534C136.491 70.6627 126.08 50.5216 111.648 51.8526Z"/></svg>