<?xml version="1.0" encoding="utf-8" ?>
<svg xmlns="http://www.w3.org/2000/svg" xmlns:xlink="http://www.w3.org/1999/xlink" width="1302" height="603">
	<path transform="matrix(2.30035 0 0 2.30153 0 -0.000488281)" d="M37.645 12.2502C44.3847 11.6771 51.3937 13.9757 56.8454 17.8762C61.1149 20.9907 64.495 25.1682 66.6498 29.9937C68.6076 34.4634 69.0033 39.6616 69.9179 44.429C71.615 52.8413 73.1678 61.2822 74.5758 69.7477C78.5981 69.2727 82.5787 68.1738 86.6182 67.6531C98.1556 66.1657 109.093 67.5114 120.396 69.8495C122.268 61.2028 123.679 52.3438 125.3 43.6395C125.955 40.1263 126.365 36.4628 127.327 33.0214C129.377 25.6848 134.821 19.5399 141.38 15.8495C147.945 12.1522 155.714 11.2294 162.962 13.286C170.755 15.5067 176.986 20.6293 180.898 27.6778C183.707 32.6554 184.93 38.3724 184.402 44.0639C183.921 48.7743 181.633 53.1858 180.03 57.5875L170.075 84.7294C168.579 88.7807 166.71 92.7348 165.515 96.886C166.937 99.5008 168.953 101.75 170.265 104.444C177.545 119.393 183.734 143.218 180.919 159.785C189.653 154.995 197.932 152.382 208.024 153.039C219.68 153.797 229.725 158.47 237.437 167.287C249.76 181.373 252.474 201.138 251.239 219.2C250.552 229.251 248.232 242.056 240.266 248.952C236.625 252.104 232.087 253.395 227.316 253.044C223.819 252.787 220.596 251.656 218.265 248.898C214.561 244.515 214.959 238.585 215.372 233.25C211.637 233.169 207.902 233.141 204.166 233.166L194.565 233.209C194.966 235.94 195.085 238.947 194.674 241.679C194.14 245.227 192.54 248.658 189.56 250.797C186.317 253.126 182.019 253.552 178.173 252.888C173.217 252.034 169.335 249.239 166.461 245.171C157.359 232.286 157.412 209.929 160.017 194.818C156.372 198.007 151.761 199.541 147.977 202.459C146.75 204.956 145.944 207.658 144.713 210.168C142.996 213.671 140.672 216.705 138.496 219.921C139.591 222.004 140.833 224.006 141.865 226.126C144.22 230.971 145.613 237.052 143.768 242.29C142.32 246.399 139.049 249.762 135.14 251.615C130.352 253.829 124.882 254.058 119.925 252.25C111.091 249.091 106.159 241.817 102.29 233.68C98.6236 233.031 94.957 232.404 91.3297 231.555C91.7048 233.747 92.0158 235.95 92.2626 238.161C92.7146 242.594 92.2634 247.546 89.3013 251.103C86.5602 254.394 82.5084 255.852 78.3527 256.219C73.0506 256.686 68.0641 255.896 63.8974 252.386C51.3675 241.831 49.1773 217.787 47.8113 202.489C43.4442 200.325 39.0823 198.005 35.1652 195.092C14.4381 179.682 10.9711 158.101 15.2778 134.122C16.7258 126.06 18.776 118.147 22.0036 110.598C22.8713 108.569 23.739 106.487 24.7696 104.535C25.5478 103.061 29.2568 97.81 29.2012 96.5381C29.0651 93.4224 26.8401 89.9004 25.7517 86.9889L15.3464 58.5402C13.7473 54.1081 11.5188 49.7014 10.8356 45.0066C9.70688 37.2509 12.249 29.5873 16.8981 23.3886C21.9723 16.6233 29.5005 13.3877 37.645 12.2502ZM193.294 206.959C197.632 207.053 201.97 207.082 206.308 207.047L216.268 207.064C216.41 201.699 216.659 195.41 212.7 191.2C210.753 189.13 208.163 188.132 205.353 188.083L203.548 188.069C200.638 188.381 198.285 189.17 196.353 191.518C192.96 195.64 193.041 201.926 193.294 206.959ZM109.544 204.565L109.765 204.064C108.222 203.314 96.2406 203.709 93.6416 203.679C96.4386 205.864 99.9898 206.848 103.512 206.413C105.672 206.156 107.57 205.442 109.544 204.565Z"/>
	<path fill="#FEFEFE" transform="matrix(2.30035 0 0 2.30153 0 -0.000488281)" d="M128.688 82.957C130.825 72.1385 132.502 61.2518 134.524 50.4152C135.526 45.0444 136.261 39.2741 138.187 34.1445C139.816 29.8032 143.352 26.2812 147.564 24.402C152.183 22.3474 157.434 22.2333 162.138 24.0853C166.693 25.8359 170.352 29.3446 172.293 33.8218C173.389 36.3159 174.25 39.5453 173.921 42.2739C173.125 48.8508 169.289 56.5086 166.957 62.8578C162.502 74.9864 158.181 87.1889 153.495 99.2308C165.467 111.013 170.699 134.676 171.274 151.118L171.276 151.291C171.387 162.72 167.431 173.304 159.387 181.494C144.652 196.497 120.109 201.076 99.851 201.277C78.3914 201.49 52.0265 197.666 36.0837 181.958C27.8416 173.838 23.8373 163.221 23.7848 151.731C23.7208 137.73 28.7997 116.8 36.4815 105.183C37.9359 102.984 39.6427 101.156 41.4887 99.2922L28.3912 63.7898C26.2194 57.8826 21.6749 48.319 21.0933 42.2893C20.6661 37.8606 22.6406 32.6874 25.4909 29.3489C29.2158 24.986 33.9094 23.2331 39.5085 22.7774C43.1772 22.8817 46.7331 23.7197 49.8658 25.6941C52.7437 27.495 55.0326 30.0976 56.4511 33.182C58.6594 37.9916 59.2367 43.6453 60.207 48.823C62.339 60.2 63.8788 71.7396 66.4679 83.0249C84.1322 77.8249 97.9732 75.5647 116.208 79.611C120.417 80.5448 124.508 81.9086 128.688 82.957Z"/>
	<path transform="matrix(2.30035 0 0 2.30153 0 -0.000488281)" d="M147.564 48.7632C149.385 48.412 150.974 48.4804 152.73 49.1215C155.035 49.9629 157.013 51.5605 158.015 53.8367C158.498 54.9364 158.817 56.3658 158.659 57.5692C158.121 61.6616 155.547 67.2208 154.146 71.2109C151.765 77.988 149.641 84.8144 147.03 91.5144L146.832 92.1336C145.041 92.131 138.637 87.2461 136.88 85.9754C137.837 80.4253 138.631 74.789 139.314 69.1986C139.906 64.3486 139.917 58.3768 141.689 53.8149C142.75 51.085 145.019 49.8542 147.564 48.7632Z"/>
	<path transform="matrix(2.30035 0 0 2.30153 0 -0.000488281)" d="M42.3656 50.9438C44.6999 50.5539 47.0586 50.7911 49.0418 52.1608C50.3902 53.0921 51.7405 54.5971 52.3723 56.1224C54.1152 60.3303 54.493 67.3569 55.175 71.9569C55.9711 77.1391 56.8299 82.3115 57.7511 87.4729C54.9608 89.0025 52.3236 91.0569 49.7531 92.9292L48.3591 93.9973C47.556 91.6883 46.5535 89.4256 45.6557 87.1491C43.8987 82.694 42.3702 78.1536 40.6623 73.6793C39.0186 69.3736 36.4616 64.4104 35.7905 59.8866C35.5957 58.5736 35.8246 57.245 36.369 56.0379C37.5445 53.4316 39.7733 51.9037 42.3656 50.9438Z"/>
	<path transform="matrix(2.30035 0 0 2.30153 0 -0.000488281)" d="M95.0782 150.755C97.5752 150.631 101.169 150.279 103.184 152.041C103.681 152.477 103.974 153.061 103.98 153.728C103.997 155.395 102.749 156.508 101.653 157.574L101.727 158.028C102.306 158.732 102.946 159.286 103.732 159.753C104.409 160.155 105.342 160.489 106.125 160.256C108.197 159.64 108.864 156.292 109.796 154.57C110.209 153.806 110.858 153.093 111.74 152.897C112.528 152.723 113.413 153.097 114.072 153.499C115.027 154.082 115.728 154.821 115.971 155.942C116.383 157.847 115.4 159.944 114.406 161.532C112.789 164.115 110.365 166.083 107.351 166.744C104.673 167.333 102.155 166.891 99.8533 165.433L98.1828 164.16C97.4398 164.695 96.6861 165.247 95.8826 165.688C93.4414 167.038 90.558 167.343 87.8886 166.533C85.115 165.646 82.8083 163.692 81.4776 161.101C80.6234 159.445 79.8269 157.044 80.4653 155.188C80.8111 154.183 81.4872 153.676 82.4311 153.244C83.1808 152.902 84.0951 152.668 84.8884 153.005C86.465 153.674 86.931 155.779 87.4853 157.229C87.9075 158.333 88.4398 159.624 89.6122 160.107C90.5226 160.481 91.4382 160.23 92.3121 159.881C92.9997 159.606 93.5271 159.304 93.8243 158.585C94.2004 157.675 93.2304 156.091 92.8898 155.214C92.5183 154.256 92.2294 153.565 92.703 152.573C93.1431 151.651 94.1708 151.102 95.0782 150.755Z"/>
	<path transform="matrix(2.30035 0 0 2.30153 0 -0.000488281)" d="M142.888 135.653C148.218 134.539 153.442 137.958 154.554 143.288C155.667 148.619 152.246 153.841 146.915 154.952C141.587 156.062 136.367 152.643 135.256 147.315C134.144 141.987 137.561 136.766 142.888 135.653Z"/>
	<path transform="matrix(2.30035 0 0 2.30153 0 -0.000488281)" d="M48.2607 135.639C53.5929 134.602 58.758 138.078 59.8067 143.408C60.8554 148.737 57.3921 153.911 52.0647 154.971C46.72 156.036 41.5265 152.559 40.4744 147.212C39.4223 141.864 42.9112 136.679 48.2607 135.639Z"/>
	<path transform="matrix(2.30035 0 0 2.30153 0 -0.000488281)" d="M365.159 152.971C367.855 152.877 370.502 153.321 372.896 154.62C375.434 155.998 377.193 158.205 377.992 160.976C379.999 167.931 376.981 175.076 375.417 181.748C374.877 184.052 374.868 187.034 373.717 189.096C375.163 188.844 376.598 188.133 378.007 187.701C382.523 186.313 387.087 185.544 391.812 186.13C400.247 187.177 407.753 191.082 412.985 197.823C415.119 200.572 418.508 206.232 418.057 209.793C419.435 208.701 420.486 204.841 421.352 203.142C425.133 195.727 432.686 190.362 440.49 187.862C450.426 184.68 461.78 185.364 471.072 190.186C478.906 194.266 484.815 201.272 487.515 209.682C490.095 217.986 489.638 227.126 485.542 234.856C482.394 240.798 475.926 247.692 469.327 249.701C469.28 249.743 469.235 249.786 469.187 249.827C466.248 252.32 454.943 253.297 451.061 253.056C438.375 252.272 427.391 246.334 421.291 234.927C420.056 232.616 419.62 228.952 417.876 227.088C417.828 227.037 417.779 226.988 417.73 226.939C417.744 226.997 417.76 227.054 417.771 227.112C418.295 229.782 413.865 237.211 412.259 239.436C407.245 246.517 399.584 251.273 391.014 252.625C380.7 254.273 368.693 252.188 360.156 245.985C350.85 239.223 346.46 228.189 344.753 217.154C342.394 201.904 344.531 172.919 353.853 160.303C356.875 156.214 360.055 153.753 365.159 152.971ZM385.656 230.183C389.112 229.648 392.011 227.293 393.242 224.02C394.473 220.747 393.845 217.064 391.598 214.385C389.35 211.706 385.833 210.445 382.396 211.088C377.196 212.06 373.737 217.025 374.628 222.24C375.518 227.455 380.428 230.991 385.656 230.183ZM456.385 231.656C461.433 230.129 464.295 224.806 462.784 219.753C461.274 214.699 455.961 211.82 450.903 213.313C445.82 214.814 442.924 220.158 444.441 225.235C445.959 230.313 451.313 233.191 456.385 231.656Z"/>
	<path transform="matrix(2.30035 0 0 2.30153 0 -0.000488281)" d="M288.897 152.971C299.861 152.56 311.192 155.148 320.563 160.974C331.155 167.559 338.058 177.864 340.861 189.941C344.042 203.647 342.622 219.387 335.057 231.403C328.141 242.388 316.765 248.872 304.334 251.71C301.589 252.669 297.777 252.917 294.895 253.065C285.026 253.569 269.147 252.29 261.628 245.426C254.275 238.714 253.609 226.277 253.2 216.942C252.654 204.465 252.249 184.099 255.506 172.372C256.583 168.497 258.317 164.669 261.069 161.69C267.779 154.426 279.569 153.337 288.897 152.971ZM283.78 227.874C290.611 228.539 299.082 229.049 304.758 224.413C304.989 224.224 305.078 224.082 305.199 223.816C307.783 222.573 309.909 218.913 310.832 216.29C312.614 211.227 312.737 204.632 310.352 199.741C308.407 195.753 304.747 192.702 300.562 191.295C296.005 189.763 290.627 189.914 285.877 190.28C285.498 190.357 284.771 190.386 284.543 190.689C283.297 192.343 285.5 225.073 283.78 227.874Z"/>
	<path transform="matrix(2.30035 0 0 2.30153 0 -0.000488281)" d="M517.866 152.971C520.236 152.761 522.888 153.212 524.973 154.38C528.042 156.099 529.652 159.268 530.535 162.542C531.345 165.547 532.986 177.328 531.533 179.865C538.202 179.943 549.63 179.525 554.707 184.254C556.617 186.033 557.352 188.429 557.436 190.978C557.528 193.759 556.805 196.355 554.842 198.394C549.505 203.935 537.983 204.124 530.719 204.184C530.995 204.555 531.15 204.888 531.196 205.347C531.879 212.05 530.542 218.853 531.828 225.587C533.475 234.208 541.31 229.505 547.265 233.644C549.435 235.153 550.394 237.517 550.811 240.04C551.239 242.624 551.099 245.073 549.494 247.266C547.255 250.325 543.4 251.693 539.805 252.282C535.416 254.05 527.575 252.979 523.213 251.487C509.878 246.926 505.905 236.992 504.683 223.917C504.339 220.233 504.053 216.545 504.068 212.843C504.077 210.667 504.639 206.199 503.677 204.384C503.652 204.336 503.623 204.291 503.595 204.245C497.606 203.877 489.03 203.69 484.422 199.392C482.682 197.769 481.912 195.652 481.825 193.303C481.712 190.227 482.509 187.01 484.685 184.744C489.144 180.098 497.586 180.002 503.568 179.899C504.441 178.583 504.085 176.056 504.255 174.472C504.847 168.93 505.922 162.434 509.271 157.849C511.537 154.746 514.185 153.562 517.866 152.971Z"/>
</svg>
