<?xml version="1.0" encoding="utf-8" ?>
<svg xmlns="http://www.w3.org/2000/svg" xmlns:xlink="http://www.w3.org/1999/xlink" width="508" height="508">
	<path transform="scale(0.999809 0.999809)" d="M124.378 7.3541C132.921 6.34165 143.445 8.98884 151.08 12.6856C163.243 18.5744 174.337 30.2251 178.55 43.2049C180.694 49.8101 181.417 56.8477 182.761 63.6432L189.168 97.3094C190.02 101.789 190.736 108.907 192.179 112.916C192.213 113.011 192.25 113.105 192.286 113.199C194.484 113.001 196.717 112.421 198.885 111.991C203.347 111.104 207.85 110.134 212.369 109.598C225.759 108.011 242.234 107.91 255.588 109.561C262.542 110.421 269.469 111.901 276.359 113.18C278.075 108.02 278.689 102.198 279.659 96.8345L285.756 64.5531C286.932 58.0809 287.874 49.2169 290.055 43.2196C292.356 36.8901 295.752 31.658 299.921 26.4442C306.519 18.1933 317.186 11.5128 327.387 8.88264C329.838 8.25048 332.403 7.9629 334.918 7.6875C349.185 6.03159 363.511 10.2641 374.587 19.4078C389.288 31.3346 397.777 52.6398 393.391 71.3022C392.615 74.6046 391.281 77.7496 390.043 80.8972C388.026 86.0249 385.893 91.1373 384.118 96.3553C380.523 106.922 376.443 117.284 372.594 127.757C370.565 133.278 368.817 138.9 366.679 144.389C365.213 148.153 359.763 160.038 359.9 162.878C360.002 164.998 366.76 174.252 368.344 177.146C369.987 180.147 371.196 183.481 372.521 186.638C380.876 206.525 386.23 227.544 388.406 249.005C391.888 284.093 383.409 312.802 357.636 337.353C354.531 340.311 343.388 347.306 341.966 349.662C340.955 351.336 340.25 360.476 339.715 363.221C337.482 374.695 332.428 386.916 325.992 396.678C323.538 400.4 320.738 403.802 317.911 407.242C318.327 409.375 321.423 413.197 322.604 415.153C323.539 416.701 324.343 418.333 325.111 419.97C329.692 429.729 333.428 442.984 329.54 453.5C326.264 462.361 318.931 469.57 310.368 473.39C301.814 477.206 288.923 477.364 280.228 473.945C262.525 466.982 251.252 452.34 243.911 435.314C236.161 434.908 227.737 433.518 220.505 430.655C222.287 438.207 223.354 445.762 223.124 453.535C222.892 461.345 220.767 468.898 214.911 474.357C207.961 480.835 196.794 483.108 187.523 482.723C175.906 482.242 168.054 478.263 160.217 469.632C143.587 451.317 138.241 422.715 134.882 399.051C132.67 383.468 131.269 367.584 132.003 351.843C131.469 351.685 130.945 351.503 130.442 351.263C126.285 349.279 122.584 346.354 118.963 343.543C116.264 341.447 113.495 339.386 110.963 337.089C100.405 327.509 90.6221 314.155 85.8705 300.613C77.0981 275.613 78.6235 252.934 83.8345 227.418C84.5984 223.678 85.2149 219.902 86.1162 216.191C89.173 204.047 93.3101 192.201 98.4782 180.795C100.228 176.874 102.49 173.231 104.885 169.679C106.326 167.54 107.991 165.44 109.078 163.094L109.228 162.763C104.189 150.644 99.9275 138.192 95.4745 125.853C93.2599 119.717 90.7228 113.689 88.4464 107.573C86.6815 102.831 85.1795 98.0302 83.5008 93.2651C80.2925 84.1578 75.3961 75.4007 74.5042 65.6755C73.1418 50.8213 78.1477 36.8108 87.7022 25.4639C96.7164 14.7586 110.601 8.48706 124.378 7.3541ZM225.732 374.358C227.382 375.416 229.038 376.432 230.818 377.261C237.799 380.15 246.412 381.163 253.562 378.202C255.327 377.472 260.539 375.572 261.285 373.849C260.646 373.627 260.018 373.797 259.368 373.899C250.435 374.653 234.415 375.64 225.732 374.358Z"/>
	<path fill="#FEFEFE" transform="scale(0.999809 0.999809)" d="M291.855 137.604C292.29 133.963 293.109 130.29 293.778 126.681C295.264 118.66 296.896 110.661 298.326 102.631C300.291 91.593 302.006 80.5306 304.069 69.5019C305.505 61.827 306.817 54.0237 309.679 46.7189C312.57 39.3392 318.83 32.9121 326.111 29.7482C335.388 25.7168 345.604 25.7851 354.943 29.5276C362.035 32.3696 368.87 39.1328 371.871 46.1482C374.193 51.5745 375.879 58.1247 375.047 64.0621C374.088 70.9182 368.584 84.1645 366.028 90.8462L352.019 127.525C349.791 133.321 348.139 139.428 346.103 145.302C343.521 152.753 340.436 160.126 337.499 167.449C337.656 167.591 337.811 167.734 337.962 167.882C340.615 170.482 343.461 173.327 345.605 176.358C347.062 178.417 348.25 180.737 349.487 182.935C352.716 188.586 355.52 194.468 357.877 200.534C359.176 203.918 360.103 207.499 361.161 210.968C366.102 227.165 369.943 244.064 370.291 261.062C370.588 275.608 368.068 288.724 361.255 301.689C359.153 305.688 356.829 309.569 353.919 313.04C350.505 317.112 346.584 321.31 342.513 324.711C326.819 337.823 304.112 346.694 284.235 350.857C276.007 352.58 265.238 353.869 256.773 354.608C236.658 356.363 216.405 355.725 196.441 352.705C192.275 352.106 188.032 351.64 183.913 350.772C174.276 348.742 165.123 345.449 155.993 341.844C152.896 340.62 149.694 339.5 146.712 338.015C139.552 334.449 131.909 329.513 125.813 324.337C110.093 311.076 100.315 292.09 98.6478 271.592C97.0288 252.204 101.411 232.249 106.789 213.749C108.122 209.165 109.327 204.527 111.046 200.067C114.1 192.145 118.147 183.897 122.804 176.8C125.086 173.322 128.398 170.658 131.083 167.494C128.74 160.093 125.41 152.923 122.734 145.626L110.234 111.715C108.777 107.705 107.558 103.629 106.035 99.6375C103.033 91.772 99.8725 83.9691 97.1221 76.0102C95.7455 72.0269 94.1505 67.9205 93.6804 63.7099C92.8093 55.9073 95.4671 46.2721 100.368 40.1369C106.867 32.0008 114.622 27.9978 124.919 26.8491C124.998 26.8363 125.076 26.819 125.155 26.8108C132.896 26.0063 141.797 28.3627 148.068 32.9639C153.188 36.721 157.022 41.5612 159.455 47.4254C162.05 53.6791 162.938 60.5238 164.174 67.1448C165.448 73.9648 166.831 80.786 167.979 87.6273C168.579 91.2033 168.973 94.8103 169.585 98.3848C171.831 111.496 174.832 124.487 176.883 137.634C183.81 136.048 190.451 133.442 197.355 131.801C220.636 126.113 244.915 125.866 268.307 131.081C276.282 132.812 283.901 135.848 291.855 137.604Z"/>
	<path transform="scale(0.999809 0.999809)" d="M329.121 74.0523C331.457 73.867 333.564 74.1727 335.765 74.9455C340.175 76.4944 343.608 79.0916 345.642 83.3605C346.714 85.6119 347.449 88.5386 347.095 91.0383C346.589 94.6114 345.027 98.1664 343.813 101.551L338.36 116.656C336.588 121.627 335.208 126.725 333.517 131.722C330.884 139.499 327.962 147.214 325.156 154.931C325.017 155.174 325.126 155.029 324.725 155.263C321.362 152.171 317.117 150.08 313.339 147.556C311.276 146.179 309.352 144.402 307.094 143.363C308.243 133.965 309.903 124.633 311.051 115.238C312.186 105.955 312.652 96.4333 314.665 87.2821C315.135 85.1469 315.872 82.9476 317.106 81.1253C319.815 77.1228 324.48 74.8772 329.121 74.0523Z"/>
	<path transform="scale(0.999809 0.999809)" d="M134.007 78.3058C138.112 77.7962 142.008 78.4916 145.388 80.9486C148.054 82.8638 150.111 85.5063 151.315 88.5601C152.566 91.8111 152.895 95.327 153.486 98.7382C154.824 106.457 155.888 114.132 156.995 121.881C158.127 129.808 159.686 137.7 160.931 145.615C155.858 149.173 150.7 152.595 145.729 156.297C144.973 156.832 144.315 157.566 143.652 158.211C142.75 154.879 141.36 151.688 140.102 148.478L134.678 134.626C133.54 131.694 132.717 128.649 131.665 125.686C130.175 121.489 128.495 117.352 126.878 113.201C125.183 108.85 121.865 101.604 120.915 97.3519C119.99 93.2098 120.621 89.1552 122.955 85.5924C125.56 81.6168 129.407 79.2616 134.007 78.3058Z"/>
	<path transform="scale(0.999809 0.999809)" d="M229.288 262.554C232.785 262.291 237.431 261.902 240.833 262.665C242.678 263.079 244.425 264.046 245.383 265.728C246.139 267.055 246.261 268.64 245.842 270.097C245.199 272.337 243.606 273.636 241.659 274.717C242.882 276.947 244.325 278.802 246.859 279.588C248.482 280.092 250.274 279.985 251.762 279.136C255.512 276.997 255.402 272.821 256.434 269.189C258.076 267.53 259.899 266.91 262.102 266.364C262.883 266.564 263.647 266.787 264.389 267.104C266.009 267.796 267.3 269.096 267.882 270.771C268.983 273.945 267.582 278.139 266.143 281.012C263.652 285.986 260.052 289.558 254.708 291.318C249.551 293.017 244.437 292.488 239.628 290.082C238.134 289.19 236.804 288.11 235.517 286.946C232.078 289.976 227.827 292.082 223.205 292.314C217.807 292.585 212.741 290.64 208.785 286.971C205.133 283.585 202.828 278.494 202.718 273.495C202.676 271.602 203.008 269.551 204.406 268.156C205.627 266.938 207.475 266.51 209.152 266.581C211.255 266.671 212.997 267.761 214.385 269.276C214.454 269.35 214.52 269.426 214.588 269.501C215.172 271.381 215.219 273.387 215.791 275.277C216.302 276.968 217.428 278.436 219.012 279.257C220.64 280.102 222.702 280.128 224.405 279.488C226.776 278.598 227.792 277.041 228.742 274.839C227.601 273.886 226.426 272.834 225.687 271.528C224.891 270.121 224.598 268.613 225.051 267.042C225.653 264.951 227.453 263.536 229.288 262.554Z"/>
	<path transform="scale(0.999809 0.999809)" d="M319.254 234.422C329.193 233.072 338.346 240.035 339.696 249.975C341.047 259.914 334.084 269.067 324.144 270.418C314.204 271.769 305.051 264.806 303.7 254.865C302.35 244.925 309.313 235.772 319.254 234.422Z"/>
	<path transform="scale(0.999809 0.999809)" d="M144.738 234.44C154.689 233.145 163.803 240.167 165.09 250.12C166.376 260.072 159.346 269.181 149.393 270.459C139.452 271.735 130.356 264.716 129.071 254.775C127.786 244.835 134.798 235.733 144.738 234.44Z"/>
</svg>
