<?xml version="1.0" encoding="utf-8" ?>
<svg xmlns="http://www.w3.org/2000/svg" xmlns:xlink="http://www.w3.org/1999/xlink" width="500" height="500">
	<path d="M285.367 117.712C286.258 110.804 287.795 103.943 289.144 97.1148C290.509 90.204 291.724 83.2326 293.003 76.3024L296.399 57.7764C297.122 53.8094 297.625 49.7386 298.851 45.8877C303.255 32.048 314.309 19.9564 327.17 13.4687C340.397 6.93507 355.678 5.91889 369.654 10.6433C384.203 15.5744 395.369 26.2528 402.068 39.95C406.695 49.6119 408.352 60.4298 406.828 71.0339C405.642 79.4776 401.268 87.7474 398.344 95.7166L381.088 143.146L374.544 160.247C373.661 162.541 372.594 164.808 371.833 167.143C371.564 167.969 371.317 168.812 371.598 169.669C372.44 172.234 374.737 174.875 376.209 177.156C377.853 179.69 379.372 182.303 380.759 184.986C394.263 211.747 403.832 253.438 401.617 283.44C400.94 292.609 398.858 301.662 395.952 310.372C388.935 331.398 372.968 349.363 354.577 361.328C348.36 365.372 341.558 368.63 334.926 371.937C334.098 375.638 334.041 379.675 333.528 383.451C332.574 390.485 330.538 397.11 327.993 403.712C323.049 414.592 318.399 422.968 309.871 431.513C310.909 434.331 312.795 436.973 314.086 439.707C318.52 449.097 322.065 461.289 318.373 471.457C315.636 478.995 309.337 485.202 302.108 488.528C293.935 492.289 283.375 492.263 274.993 489.135C271.276 487.747 267.844 485.644 264.627 483.344C253.114 475.113 248.755 464.842 243.078 452.582C236.278 451.73 229.005 450.267 222.775 447.317C224.271 453.801 224.814 463.374 223.786 469.932C222.762 476.46 219.915 482.683 214.422 486.589C206.718 492.067 195.881 492.669 186.871 491.056C177.753 489.425 170.469 483.166 165.319 475.719C150.977 454.982 148.562 422.186 147.863 397.629C147.639 389.748 147.207 379.832 148.613 372.106C145.818 371.241 143.055 369.726 140.454 368.388C131.218 363.636 122.852 358.191 114.881 351.507C107.331 345.176 100.84 337.256 95.6535 328.926C77.3788 299.577 78.3673 268.114 85.1565 235.477C85.9888 231.476 86.6887 227.425 87.6755 223.459C90.6333 211.57 94.8693 199.925 99.7687 188.702C101.393 184.963 103.357 181.381 105.637 178.001C107.12 175.834 108.874 173.725 110.155 171.437C110.6 170.641 110.932 169.834 110.879 168.906C110.657 164.995 105.59 154.101 103.984 149.868L87.6432 105.564C86.6563 102.819 85.847 100.015 84.8563 97.2726C81.5725 88.1827 76.2016 78.1397 75.3673 68.4966C74.0319 53.0601 78.8769 38.6182 88.8868 26.8008C98.4847 15.4699 112.273 9.05206 126.924 7.8564C129.201 7.51415 131.961 7.68556 134.256 7.84538C144.345 8.54785 153.632 11.7432 161.976 17.4272C170.695 23.4534 177.569 31.7816 181.833 41.4842C184.885 48.4506 185.701 55.6064 187.075 62.9905C188.331 69.7398 189.654 76.4557 190.842 83.2211C192.864 94.7382 195.2 106.231 197.389 117.721C203.706 116.515 209.981 115.049 216.357 114.192C232.732 111.992 251.717 112.172 268.07 114.466C273.857 115.278 279.616 116.638 285.367 117.712ZM222.23 388.408C224.308 391.883 226.852 395.597 230.375 397.763C235.155 401.849 242.321 404.061 248.582 403.609C256.489 403.038 263.439 399.378 268.602 393.379C269.851 391.927 271.679 389.929 272.08 388.021L271.912 387.757L269.792 387.902C266.185 388.131 262.588 388.567 258.98 388.73C251.231 389.005 243.476 389.1 235.723 389.015C231.427 389.009 226.41 389.344 222.23 388.408Z"/>
	<path fill="#FEFEFE" d="M350.877 27.6053C355.872 27.4475 360.845 28.343 365.472 30.2335C374.363 33.9359 381.397 41.0504 384.998 49.983C386.962 54.8285 388.283 61.6302 387.449 66.8652C386.408 73.4037 383.308 79.9273 381.02 86.1371C376.983 97.205 372.878 108.248 368.706 119.266L354.212 158.772C352.324 163.82 350.61 168.969 348.495 173.926L348.944 174.31C349.152 174.483 349.367 174.646 349.565 174.83C369.792 193.638 381.106 241.674 382.188 268.591C383.113 291.611 377.499 312.171 361.57 329.395C334.571 358.589 288.749 367.764 250.717 369.165C209.707 370.675 156.795 363.11 125.495 333.903C108.285 317.843 101.091 298.948 100.274 275.75C99.889 249.099 109.12 209.998 123.209 187.292C126.289 182.328 129.991 178.147 133.948 173.89C125.312 149.764 116.231 125.754 107.284 101.739L99.8831 81.8108C98.222 77.3256 96.1189 72.6362 95.2948 67.9215C93.7742 59.2216 96.6171 49.5628 101.673 42.4678C107.123 34.7693 115.455 29.602 124.774 28.1409C134.328 26.6119 143.883 28.6479 151.749 34.3561C156.828 38.0419 161.16 43.2088 163.565 49.0301C165.892 54.6632 166.737 60.7201 167.813 66.6774L171.401 86.8618C174.796 105.554 178.664 124.256 181.648 143.014C189.399 140.867 196.94 138.119 204.817 136.412C232.633 130.146 261.593 131.147 288.909 139.318C292.905 140.496 296.977 141.607 300.859 143.122C301.531 140.433 301.907 137.63 302.396 134.902L305.183 119.328L312.786 77.4815C313.74 71.9021 314.769 66.3359 315.875 60.7846C316.501 57.6469 317.029 54.4097 318.066 51.3785C319.563 47.0014 321.912 43.1088 324.966 39.6459C331.85 31.8408 340.623 28.212 350.877 27.6053Z"/>
	<path d="M340.761 76.8539C343.97 76.8413 347.081 77.5318 349.878 79.1353C353.852 81.413 356.586 85.3222 357.753 89.7168C358.322 91.8612 358.398 93.9334 357.88 96.1021C356.666 101.192 354.492 106.273 352.801 111.237L341.759 143.376C340.51 147.008 337.032 158.787 335.612 161.208L335.132 161.076L324.002 153.538C321.612 151.921 319.24 150.089 316.651 148.809L322.457 106.677C323.307 100.805 323.643 94.3555 325.27 88.661C325.916 86.4029 327.054 84.3757 328.585 82.5998C331.731 78.9514 336.026 77.2024 340.761 76.8539Z"/>
	<path d="M137.24 81.5668C141.501 80.965 146.033 81.942 149.506 84.5334C151.644 86.1295 153.818 88.6081 154.779 91.1029C156.078 94.4701 156.462 98.2935 157.074 101.839C158.193 108.184 159.223 114.545 160.163 120.92C161.7 131.024 163.572 141.052 165.034 151.176C159.87 154.767 154.747 158.417 149.666 162.125C148.771 162.682 147.94 163.295 147.099 163.927L131.84 123.284L127.178 110.782C125.855 107.329 124.156 103.709 123.476 100.067C122.709 95.9603 123.618 91.9247 125.984 88.4932C128.769 84.4531 132.502 82.4492 137.24 81.5668Z"/>
	<path d="M331.02 243.344C341.35 242.805 350.188 250.684 350.833 261.008C351.479 271.332 343.691 280.251 333.374 281.002C326.605 281.496 320.093 278.315 316.32 272.674C312.547 267.032 312.095 259.799 315.136 253.732C318.177 247.664 324.243 243.698 331.02 243.344Z"/>
	<path d="M147.464 243.622C157.762 241.876 167.517 248.831 169.224 259.135C170.93 269.439 163.938 279.168 153.628 280.835C143.373 282.494 133.708 275.547 132.01 265.299C130.313 255.05 137.222 245.358 147.464 243.622Z"/>
	<path d="M237.956 272.274C238.058 272.274 238.161 272.27 238.262 272.273C240.804 272.372 242.251 273.396 243.898 275.245C245.371 273.897 246.85 272.538 248.972 272.464C249.883 272.432 250.809 272.728 251.439 273.405C252.366 274.4 252.664 275.786 252.549 277.111C252.266 280.382 249.728 282.821 247.379 284.827C248.795 285.692 250.179 286.708 251.921 286.662C253.549 286.62 254.56 285.626 255.583 284.477C255.829 282.949 255.926 280.965 256.936 279.723C257.573 278.94 258.515 278.614 259.495 278.529C260.585 278.434 261.722 278.645 262.538 279.419C263.532 280.362 263.772 281.8 263.726 283.11C263.618 286.184 261.958 289.218 259.733 291.282C256.962 293.854 253.972 294.517 250.323 294.415C247.569 294.032 246.189 292.77 243.782 291.807C242.718 291.382 240.606 293.162 239.555 293.635C236.851 294.849 233.21 294.722 230.47 293.617C227.532 292.432 225.188 289.801 224.023 286.894C223.236 284.93 222.75 282.485 223.681 280.485C224.08 279.628 224.727 278.886 225.656 278.606C227.25 278.126 228.578 278.84 229.915 279.633C230.698 281.476 230.901 283.453 232.046 285.14C232.584 285.934 233.394 286.605 234.363 286.762C236.153 287.052 237.652 285.895 238.967 284.865C237.859 283.852 236.779 282.673 236.067 281.342C235.128 279.587 234.504 277.292 235.157 275.334C235.663 273.816 236.528 272.937 237.956 272.274Z"/>
</svg>
