<?xml version="1.0" encoding="utf-8" ?>
<svg xmlns="http://www.w3.org/2000/svg" xmlns:xlink="http://www.w3.org/1999/xlink" width="1045" height="457">
	<path transform="scale(1.79245 1.79216)" d="M143.699 63.8398C144.29 58.0781 145.722 52.2078 146.763 46.5035C147.777 40.9437 148.395 34.7149 150.205 29.3702C152.483 22.6428 157.663 16.9342 164.019 13.8256C170.285 10.7528 177.527 10.34 184.101 12.6807C191.105 15.1316 196.422 20.0675 199.614 26.7445C201.623 30.9469 202.538 35.9694 201.984 40.6091C201.441 45.163 199.178 49.7242 197.632 54.0127C193.478 65.5325 188.91 76.9178 184.822 88.4546C187.165 92.561 189.69 96.1905 191.535 100.615C197.733 115.473 203.003 139.441 196.673 154.804C197.702 153.83 198.757 152.882 199.834 151.961C209.037 144.241 220.404 141.101 232.327 142.146C244.069 143.176 254.197 148.286 261.752 157.371C273.806 171.863 276.454 192.336 274.794 210.55C273.901 220.353 271.43 232.623 263.457 239.195C259.722 242.275 255.021 243.495 250.236 243.035C246.792 242.704 243.496 241.449 241.277 238.676C237.807 234.34 238.042 228.363 238.627 223.169C231.571 223.04 224.496 223.172 217.438 223.193C217.659 224.416 217.709 225.662 217.789 226.9C217.817 229.379 217.776 231.711 217.037 234.097C216.036 237.325 213.988 240.039 210.95 241.604C207.108 243.583 202.293 243.583 198.244 242.259C192.76 240.467 189.197 236.237 186.661 231.228C178.389 214.886 179.736 190.417 185.364 173.38C182.545 176.195 179.171 178.256 176.178 180.86C174.953 187.417 174.309 193.585 171.68 199.843C170.752 202.053 164.635 211.073 164.646 212.329C164.655 213.302 165.706 214.877 166.166 215.753C169.068 221.279 171.764 227.585 169.913 233.92C168.644 238.26 165.363 241.953 161.426 244.097C156.892 246.566 151.164 246.89 146.255 245.421C136.567 242.52 131.488 234.292 126.977 225.92C123.33 225.437 119.744 224.887 116.149 224.098C116.736 227.658 117.429 231.33 117.226 234.951C117.006 238.879 115.645 242.711 112.644 245.368C108.938 248.649 103.241 249.558 98.448 249.229C93.2642 248.872 88.9929 246.461 85.6094 242.579C74.1552 229.437 70.8118 199.207 71.9508 182.219C69.354 181.098 66.7766 179.079 64.5336 177.349C46.0531 163.098 43.7598 142.941 47.8223 121.582C49.1681 114.506 50.9054 107.587 53.6972 100.924C54.5552 98.8764 60.1968 88.7604 60.1528 87.9746C60 85.2491 58.0633 82.2066 57.1184 79.6464L48.3549 55.312C46.6108 50.5079 44.0806 45.7273 43.4409 40.6209C42.5361 33.3967 45.0483 26.5614 49.4834 20.9145C54.2519 14.8431 60.9139 12.1383 68.3773 11.2157C74.148 10.8329 80.0152 12.5611 84.8005 15.7681C95.424 22.888 95.9938 33.0023 98.1582 44.3895L101.981 63.8318C116.061 60.4124 129.605 60.8027 143.699 63.8398ZM216.262 196.744C220.324 197.022 224.446 196.87 228.517 196.841C232.159 196.839 235.815 196.903 239.455 196.81C239.806 191.502 239.795 185.243 236.057 180.995C233.787 178.415 230.863 177.602 227.572 177.382C227.434 177.373 227.301 177.373 227.163 177.375C223.721 177.925 220.938 178.657 218.773 181.665C215.817 185.772 215.773 191.921 216.262 196.744ZM115.295 193.117C116.704 194.265 118.087 195.453 119.643 196.4C123.514 198.387 127.087 199.12 131.313 197.777C133.757 197.001 137.508 195.087 138.822 192.787C138.395 192.65 138.39 192.638 137.976 192.801C130.636 193.547 122.603 194.238 115.295 193.117Z"/>
	<path fill="#FEFEFE" transform="scale(1.79245 1.79216)" d="M175.207 20.8904C177.574 20.9484 180.007 21.4201 182.195 22.3287C186.276 24.0183 189.517 27.2609 191.204 31.3417C192.202 33.7984 192.775 36.6715 192.369 39.3057C191.57 44.4869 189.147 49.6111 187.265 54.4888L181.884 68.7643C179.119 76.0638 176.829 83.488 173.789 90.6937C183.74 100.504 188.863 120.061 189.931 133.843C190.781 144.818 188.378 155.374 181.054 163.872C169.449 177.336 149.774 182.24 132.73 183.541C111.795 185.138 85.0938 182.383 68.5743 168.122C59.864 160.602 56.0843 151.106 55.274 139.843C55.2682 139.566 55.2658 139.289 55.2667 139.013C55.3265 123.829 60.6666 101.568 71.5999 90.7695C67.4635 80.043 63.438 69.2741 59.5239 58.4646C57.2879 52.4368 54.123 45.8867 53.08 39.5514C52.4432 35.6838 53.751 31.1164 56.0379 27.9635C58.7534 24.2196 62.603 21.9495 67.1512 21.2239C71.6143 20.5118 76.3094 21.4028 79.9884 24.097C82.5526 25.9749 84.4299 28.5123 85.6305 31.4432C88.2358 37.8026 89.2995 48.6252 90.4817 55.6174C91.6297 62.4074 93.0825 69.1405 94.1164 75.9503C98.2024 74.9991 102.153 73.5138 106.26 72.6083C123.306 68.8503 134.769 71.1966 151.139 75.9363C152.318 69.5918 153.624 63.2646 154.674 56.8975C155.981 48.9738 156.976 40.4251 159.392 32.7754C160.059 30.6629 160.912 28.695 162.334 26.9774C165.699 22.913 170.087 21.3832 175.207 20.8904Z"/>
	<path transform="scale(1.79245 1.79216)" d="M168.848 44.4773C170.494 44.3702 171.799 44.4468 173.359 45.0439C175.347 45.8053 177.105 47.1413 177.957 49.1414C178.562 50.5619 178.585 51.9453 178.323 53.4453C177.678 57.1315 175.971 60.7811 174.744 64.3248C172.451 70.946 170.332 77.5963 167.732 84.1114C167.635 84.3347 167.528 84.319 167.313 84.415L158.749 78.7784C159.378 74.4491 159.977 70.1152 160.544 65.7772C161.149 60.8118 161.178 53.382 163.238 48.8687C164.347 46.439 166.482 45.371 168.848 44.4773Z"/>
	<path transform="scale(1.79245 1.79216)" d="M72.6124 46.4872C74.7692 46.3455 76.6274 46.4596 78.4906 47.7237C79.9312 48.7012 80.8804 50.1514 81.5073 51.7495C82.9301 55.3766 83.2081 59.7427 83.783 63.5766C84.5603 69.0323 85.4335 74.474 86.402 79.8991C83.7808 81.5176 81.2888 83.3597 78.7712 85.1334L78.0361 85.8071L77.6245 85.7091L70.6331 66.976C69.2254 63.2981 67.1683 59.2469 66.4972 55.3757C66.2408 53.8965 66.3677 52.4825 66.971 51.0987C68.0452 48.6347 70.2261 47.3974 72.6124 46.4872Z"/>
	<path transform="scale(1.79245 1.79216)" d="M119.969 137.766C121.387 137.736 122.894 137.619 124.305 137.753C125.573 137.873 127.279 138.351 128.103 139.377C128.496 139.867 128.651 140.382 128.562 141.014C128.361 142.43 127.073 143.372 126.032 144.192C126.836 144.982 127.818 145.906 128.908 146.253C133.216 147.626 132.693 140.854 135.278 139.701C135.799 139.469 136.247 139.454 136.78 139.664C137.649 140.008 138.735 140.731 139.121 141.618C139.747 143.056 139.534 145.041 138.956 146.456C137.978 148.849 135.772 150.848 133.388 151.792C130.647 152.878 127.948 152.665 125.286 151.551C124.63 151.114 124.034 150.518 123.441 149.997C121.431 151.561 119.298 152.486 116.72 152.521C114.115 152.557 111.579 151.456 109.734 149.635C108.166 148.087 106.86 145.854 106.903 143.591C106.928 142.244 107.498 141.095 108.478 140.184C109.16 139.55 109.644 139.482 110.546 139.525C112.664 140.614 113.127 143.369 114.369 145.241C114.792 145.878 115.404 146.421 116.181 146.541C116.863 146.647 118.298 146.317 118.801 145.854C120.342 144.432 118.004 141.901 118.191 140.216C118.313 139.117 119.152 138.395 119.969 137.766Z"/>
	<path transform="scale(1.79245 1.79216)" d="M77.5194 123.99C82.3991 122.92 87.218 126.023 88.2622 130.907C89.3064 135.791 86.1775 140.592 81.2868 141.611C76.4324 142.621 71.6733 139.521 70.6368 134.674C69.6004 129.826 72.676 125.052 77.5194 123.99Z"/>
	<path transform="scale(1.79245 1.79216)" d="M164.02 123.991C168.905 122.89 173.752 125.981 174.81 130.875C175.869 135.768 172.734 140.585 167.83 141.6C162.987 142.603 158.241 139.516 157.196 134.683C156.151 129.851 159.196 125.079 164.02 123.991Z"/>
	<path transform="scale(1.79245 1.79216)" d="M314.74 142.156C327.548 141.469 339.486 143.069 350.721 149.766C361.113 156.038 368.584 166.184 371.488 177.967C374.98 191.833 373.933 207.903 366.493 220.291C360.358 230.507 349.751 237.884 338.236 240.757C336.013 241.961 332.242 242.286 329.685 242.63C319.273 244.031 301.22 242.942 292.77 236.453C286.733 231.818 284.783 224.361 283.832 217.151C282.056 203.692 281.788 176.283 284.793 163.445C285.748 159.365 287.339 155.199 289.924 151.86C295.747 144.34 306.015 143.306 314.74 142.156ZM313.832 217.944C320.559 218.502 329.89 219.223 335.332 214.302C335.469 214.177 335.544 214.045 335.613 213.876C338.579 212.381 340.605 208.608 341.601 205.568C343.242 200.562 343.247 194.329 340.794 189.579C338.624 185.376 334.697 182.583 330.247 181.19C325.925 179.838 321.047 179.883 316.567 180.293C315.73 180.487 315.043 180.483 314.451 181.121C313.526 187.799 315.604 214.067 313.9 217.79C313.876 217.841 313.855 217.893 313.832 217.944Z"/>
	<path transform="scale(1.79245 1.79216)" d="M400.568 142.157C404.213 141.656 408.241 142.21 411.275 144.415C413.789 146.242 415.127 148.951 415.568 151.962C416.513 158.402 414.158 164.018 412.763 170.132C412.229 172.475 412.094 176.252 410.655 178.168C413.147 177.694 415.61 176.511 418.097 175.871C425.114 174.066 433.049 175.039 439.584 178.082C446.623 181.296 452.08 187.196 454.737 194.462C458.026 203.574 457.349 214.943 453.197 223.656C450.673 228.951 445.022 236.607 439.275 238.636C438.265 239.865 435.548 240.79 434.033 241.272C423.801 244.53 410.988 243.55 401.456 238.574C392.247 233.767 386.577 225.568 383.529 215.802C378.302 199.061 380.146 168.764 388.445 153.104C391.308 147.7 394.641 143.974 400.568 142.157ZM422.857 219.823C428.236 219.034 431.951 214.029 431.15 208.653C430.349 203.278 425.335 199.574 419.96 200.386C414.601 201.196 410.909 206.19 411.708 211.55C412.507 216.909 417.495 220.611 422.857 219.823Z"/>
	<path transform="scale(1.79245 1.79216)" d="M528.885 142.157C531.729 141.759 534.896 141.86 537.51 143.161C540.486 144.642 542.194 147.497 543.197 150.547C544.277 153.831 546.066 165.973 544.591 168.889C551.489 168.975 563.151 168.502 568.293 173.689C570.179 175.591 570.85 178.158 570.829 180.77C570.807 183.558 569.934 186.115 567.899 188.079C562.293 193.488 551.024 193.518 543.68 193.425C544.874 195.342 543.982 208.307 544.325 211.805C544.587 214.471 545.36 216.848 546.156 219.377C550.53 221.797 555.951 220.399 560.241 223.222C562.269 224.557 563.447 226.646 563.911 228.994C564.5 231.969 564.635 234.345 562.824 236.964C560.944 239.685 557.793 241.313 554.592 241.899C548.021 244.085 539.94 243.301 533.667 240.516C517.895 233.516 516.888 218.134 516.795 202.945C516.779 200.298 517.319 195.887 516.314 193.478C516.289 193.418 516.262 193.359 516.236 193.299C510.235 193.383 501.894 193.242 497.084 189.055C495.193 187.409 494.246 185.315 494.105 182.827C493.933 179.779 494.757 176.393 496.846 174.11C501.333 169.207 510.039 169.173 516.212 168.833C517.121 167.462 517.408 159.997 517.814 157.743C518.306 155.005 519.035 152.215 520.248 149.701C522.116 145.828 524.838 143.562 528.885 142.157Z"/>
	<path transform="scale(1.79245 1.79216)" d="M471.802 180.862C475.527 180.439 479.774 180.235 482.981 182.513C486.175 184.782 487.365 189.703 487.991 193.348C489.702 203.319 490.781 230.619 485.003 238.705C483.375 240.985 481.347 242.283 478.577 242.758C476.007 243.656 472.375 243.048 469.969 241.898C467.047 240.501 465.551 238.141 464.539 235.189C461.265 225.64 460.746 195.16 465.232 186.16C466.666 183.282 468.864 181.86 471.802 180.862Z"/>
	<path transform="scale(1.79245 1.79216)" d="M474.851 138.132C484.393 137.731 492.458 145.129 492.879 154.667C493.3 164.205 485.917 172.284 476.377 172.724C466.81 173.166 458.7 165.759 458.279 156.192C457.857 146.626 465.282 138.534 474.851 138.132Z"/>
</svg>
